<svg width="100" height="100" viewBox="0 0 100 100" xmlns="http://www.w3.org/2000/svg" xmlns:xlink="http://www.w3.org/1999/xlink"><title>Money Back Badge</title><defs><linearGradient x1="97.783%" y1="55.636%" x2="2.144%" y2="55.636%" id="b"><stop stop-color="#4EC4D6" offset="0%"/><stop stop-color="#19C29E" offset="100%"/></linearGradient><path d="M54.307 2.967c2.812 3.402 5.47 5.56 7.977 6.47 2.86 1.042 7.846 1.307 14.954.795 3.47-.25 6.486 2.36 6.736 5.83.028.386.02.772-.023 1.156-.667 5.96-.235 10.268 1.296 12.92 1.506 2.608 5.09 5.378 10.755 8.31 3.09 1.6 4.3 5.402 2.7 8.492-.263.505-.592.973-.98 1.39-3.693 3.98-5.792 7.395-6.295 10.248-.522 2.962.332 7.266 2.562 12.913 1.278 3.237-.31 6.897-3.546 8.175-.488.193-.998.324-1.52.39-5.506.7-9.352 1.966-11.538 3.8-2.222 1.864-4.314 5.647-6.275 11.348-1.132 3.29-4.716 5.04-8.007 3.908-.55-.188-1.07-.452-1.547-.784-5.073-3.527-9.025-5.29-11.853-5.29-2.884 0-6.934 1.833-12.15 5.5-2.848 2-6.777 1.313-8.778-1.534-.295-.42-.537-.873-.722-1.35-2.266-5.866-4.59-9.798-6.972-11.797-2.124-1.782-5.48-3.024-10.07-3.727-3.44-.527-5.8-3.742-5.274-7.18.093-.606.274-1.195.536-1.748 2.646-5.577 3.72-9.785 3.22-12.622-.502-2.838-2.934-6.33-7.298-10.476-2.523-2.396-2.626-6.384-.23-8.906.417-.44.895-.815 1.418-1.117 4.823-2.786 7.958-5.433 9.406-7.94 1.577-2.73 2.24-7.18 1.993-13.345-.14-3.477 2.565-6.408 6.042-6.548.252-.01.505-.005.757.015 6.694.54 11.536.264 14.525-.824 2.652-.966 5.538-3.187 8.657-6.664 2.324-2.59 6.307-2.805 8.897-.48.23.207.448.433.647.673zM49.7 85.4C68.643 85.4 84 70.043 84 51.1c0-18.943-15.357-34.3-34.3-34.3-18.943 0-34.3 15.357-34.3 34.3 0 18.943 15.357 34.3 34.3 34.3z" id="a"/></defs><g fill="none" fill-rule="evenodd"><mask id="c" fill="#fff"><use xlink:href="#a"/></mask><use fill="url(#b)" style="mix-blend-mode:multiply" xlink:href="#a"/><path fill="url(#b)" opacity=".306" style="mix-blend-mode:multiply" mask="url(#c)" d="M-8.894 75.39L98.8 2.068l18.795 42.506L-3.12 92.84"/><path d="M31.728 33.985l.89.094.587 2.327.208.895.028.003.384-.833 1.043-2.157.89.094-.477 4.552-.76-.08.22-2.08c.01-.108.027-.224.047-.348.02-.125.04-.25.064-.377s.05-.25.075-.372c.027-.122.05-.236.07-.34l-.026-.004-.48 1-1.003 1.984-.376-.04-.57-2.15-.252-1.075-.027-.004c0 .108-.003.224-.004.348l-.005.38c0 .128-.005.256-.01.382-.007.126-.016.242-.027.35l-.22 2.08-.744-.078.478-4.553zm6.467 5.368c-.297-.03-.563-.114-.797-.25-.235-.134-.43-.314-.584-.54-.155-.224-.265-.488-.332-.79-.067-.304-.08-.64-.042-1.012.04-.365.122-.69.25-.968.128-.28.29-.51.488-.692.197-.18.425-.312.682-.393.257-.08.534-.105.83-.074.298.03.564.113.8.246.234.13.43.307.588.525.157.218.27.478.337.778.067.3.08.634.042 1-.04.372-.122.698-.25.98-.13.283-.293.518-.494.705-.2.188-.43.324-.686.407-.258.083-.535.11-.832.078zm.074-.703c.18.02.347-.004.5-.067.15-.064.286-.164.403-.3.118-.135.215-.303.292-.503.078-.2.13-.43.157-.684.053-.51-.01-.922-.19-1.235-.18-.31-.453-.486-.815-.524-.362-.038-.664.077-.905.345-.242.27-.39.658-.443 1.168-.028.256-.024.49.01.702.033.212.094.397.18.554.087.157.198.282.334.376.136.094.294.15.475.17zm3.336-3.626l.83.087 1.15 2.712.364 1.017.028.002c.006-.24.01-.496.014-.77.003-.274.018-.54.045-.794l.208-1.977.772.082-.478 4.553-.83-.087-1.15-2.71-.365-1.018-.028-.003c-.007.244-.01.5-.014.766-.002.267-.016.53-.043.784l-.21 1.99-.772-.08.478-4.553zm4.567.48l2.743.288-.072.682-1.935-.203-.123 1.163 1.636.172-.072.683-1.635-.172-.14 1.343 2.004.21-.073.682-2.812-.295.478-4.553zm4.204 3.334l-1.064-3.004.863.09.372 1.215c.047.178.095.35.143.517.05.167.1.343.157.527l.027.003c.093-.17.183-.33.27-.482.086-.153.17-.312.253-.477l.617-1.11.842.088-1.672 2.717-.178 1.692-.807-.085.177-1.692zm1.986-.15l1.657.174-.06.585-1.658-.174.06-.585zm2.79-2.24l1.456.153c.235.025.45.068.643.128s.36.14.496.242c.136.1.238.228.304.38.066.153.088.334.066.543-.023.218-.108.413-.255.585-.147.172-.357.28-.63.32l-.002.03c.324.09.563.233.72.43.154.197.215.45.183.755-.024.227-.088.42-.194.578-.106.16-.242.285-.41.38-.167.095-.36.158-.58.19-.218.03-.453.032-.704.006L54.675 41l.48-4.552zm1.188 2.032c.32.033.558 0 .712-.1.153-.103.242-.26.264-.473.022-.21-.036-.368-.175-.476-.138-.108-.356-.178-.653-.21l-.592-.06-.132 1.26.578.06zm-.11 2.05c.335.036.6 0 .793-.106.194-.106.305-.29.332-.55.025-.236-.044-.42-.21-.553-.163-.13-.417-.215-.76-.25l-.683-.073-.154 1.462.683.07zm4.733-.755l-.102-.574c-.048-.248-.093-.504-.133-.766l-.12-.78-.026-.003c-.09.25-.183.497-.275.743-.09.246-.187.486-.286.72l-.22.54 1.163.122zm.114.653l-1.532-.16-.484 1.193-.82-.085 1.96-4.397.948.1 1.004 4.708-.85-.09-.225-1.268zm1.57-.877c.04-.37.13-.698.27-.98.14-.284.315-.518.527-.702.21-.184.45-.316.717-.396.267-.08.547-.105.84-.074.278.03.52.113.73.253.208.14.376.294.503.462l-.505.454c-.104-.13-.218-.233-.343-.315-.126-.08-.276-.13-.453-.148-.19-.02-.367 0-.53.06-.164.06-.31.155-.44.285-.127.13-.234.293-.318.49-.084.198-.14.425-.166.68-.055.52.015.94.21 1.257.193.32.483.498.868.54.204.02.386 0 .545-.064.16-.063.312-.16.457-.29l.4.542c-.207.194-.435.336-.684.424-.25.09-.517.12-.805.088-.292-.03-.558-.11-.798-.238-.24-.13-.442-.303-.607-.522-.165-.22-.285-.48-.36-.784-.077-.303-.095-.643-.056-1.02zm4.488-1.843l.807.085-.217 2.067.02.002 1.84-1.898.898.095-1.586 1.627 1.344 2.95-.89-.094-1.007-2.274-.74.745-.14 1.33-.807-.085.48-4.553zM31.24 64.444c.04-.37.13-.698.272-.98.143-.284.322-.518.538-.7.217-.185.463-.316.74-.395.274-.08.565-.104.872-.072.157.017.302.05.433.095.13.047.25.103.356.168.106.066.202.138.287.218.086.08.16.16.22.24l-.497.455c-.104-.123-.22-.227-.35-.31-.13-.085-.302-.138-.515-.16-.204-.022-.393-.003-.566.056-.174.058-.327.152-.46.282-.133.13-.243.292-.33.49-.086.197-.142.423-.17.678-.054.52.02.94.224 1.26.203.318.535.502.994.55.13.014.255.01.375-.013s.22-.062.3-.12l.104-.98-.863-.092.07-.66 1.587.165-.21 2.005c-.174.137-.394.244-.66.322-.267.077-.558.1-.873.066-.302-.03-.577-.112-.826-.24-.25-.13-.458-.305-.627-.525-.17-.22-.292-.48-.368-.785-.076-.303-.094-.643-.055-1.02zm4.83-1.808l.806.085-.275 2.618c-.025.246-.025.456.002.63.026.174.074.317.145.427.07.11.16.194.266.25.106.056.23.09.37.106.138.015.268.007.388-.025.122-.032.23-.095.324-.188s.173-.222.238-.387c.064-.164.11-.37.135-.616l.275-2.617.773.08-.27 2.556c-.038.376-.11.69-.218.945-.106.254-.244.456-.412.608-.17.15-.362.254-.582.308-.22.054-.46.068-.725.04-.265-.028-.5-.09-.702-.19-.203-.1-.37-.24-.504-.423-.134-.182-.227-.408-.28-.68-.054-.27-.06-.593-.022-.97l.27-2.554zm6.128 3.36l-.102-.573c-.05-.25-.093-.505-.134-.767-.04-.262-.08-.522-.118-.78l-.028-.003-.275.742c-.09.246-.187.486-.286.72l-.22.54 1.164.122zm.114.654l-1.53-.16-.486 1.193-.82-.086 1.96-4.397.947.1 1.004 4.708-.85-.09-.225-1.268zm2.7-.92l.65.068c.31.033.554-.007.733-.12.178-.113.28-.3.308-.56.028-.263-.035-.455-.19-.575-.153-.12-.386-.195-.697-.228l-.647-.068-.157 1.483zm1.424 2.6l-.794-1.887-.696-.073-.187 1.782-.81-.084.48-4.553 1.538.16c.237.026.455.073.654.14.2.068.368.162.505.282.138.12.24.27.308.452.068.18.09.397.062.653-.037.348-.15.62-.336.816-.186.195-.42.325-.705.39l.886 2.014-.904-.095zm2.164-4.377l2.742.288-.07.683-1.937-.203-.122 1.163 1.636.172-.073.682-1.636-.172L49 67.91l2.005.21-.07.68-2.814-.294.48-4.553zm3.745.394l.828.087 1.15 2.71.366 1.018.027.002c.006-.238.01-.495.014-.77.004-.273.02-.538.046-.793l.207-1.976.773.08-.478 4.554-.83-.087-1.15-2.71-.364-1.017-.028-.003c-.007.244-.012.5-.014.766-.002.267-.017.528-.044.784l-.21 1.99-.772-.08.48-4.553zm5.414 1.258l-1.317-.138.072-.682 3.44.36-.073.684-1.315-.14-.407 3.87-.808-.084.407-3.87zm2.953-.38l2.743.29-.072.682-1.935-.204-.124 1.163 1.636.172-.07.682-1.637-.172-.14 1.344 2.004.21-.073.683-2.813-.296.48-4.554zm3.745.395l2.743.288-.07.682-1.936-.203-.122 1.162 1.636.17-.072.684L65 68.232l-.14 1.343 2.004.21-.072.683-2.812-.295.478-4.553z" fill="#22C2A8"/><path d="M24.39 55.15l3.263.344 1.01-9.603-2.69-.28.175-1.655c.75-.06 1.4-.16 1.948-.295.548-.136 1.067-.318 1.555-.545l1.977.208-1.31 12.45 2.873.303-.227 2.16-8.8-.925.228-2.16zm15.71 4.115c-1.53-.16-2.67-.943-3.422-2.346-.75-1.404-.996-3.346-.735-5.827.26-2.48.902-4.307 1.923-5.477 1.02-1.17 2.297-1.675 3.83-1.514 1.53.16 2.674.924 3.428 2.288.755 1.365 1.003 3.28.744 5.746-.26 2.48-.904 4.33-1.93 5.546-1.026 1.216-2.305 1.744-3.837 1.583zm.22-2.068c.35.037.686-.024 1.005-.185.32-.16.61-.45.87-.872s.49-.978.687-1.67c.196-.692.35-1.558.46-2.6.107-1.026.136-1.894.087-2.603-.05-.71-.16-1.29-.33-1.742-.17-.45-.394-.78-.674-.988-.28-.208-.596-.33-.948-.367-.353-.037-.687.017-1.004.16-.318.146-.606.422-.865.828-.26.406-.49.95-.684 1.635-.196.684-.348 1.54-.456 2.566-.11 1.04-.14 1.92-.09 2.637.047.717.155 1.31.323 1.776.168.467.39.81.67 1.034.278.223.593.353.946.39zm11.567 3.306c-1.532-.16-2.673-.943-3.424-2.345-.75-1.403-.995-3.345-.734-5.826.26-2.482.9-4.307 1.92-5.477 1.023-1.17 2.3-1.675 3.83-1.514 1.532.162 2.675.925 3.43 2.29.755 1.364 1.002 3.28.743 5.745-.26 2.48-.904 4.33-1.93 5.546-1.026 1.217-2.305 1.744-3.836 1.583zm.217-2.067c.352.037.688-.025 1.007-.185.32-.16.61-.45.87-.87.262-.423.49-.98.687-1.67.197-.693.35-1.56.46-2.6.107-1.027.136-1.895.087-2.605-.05-.71-.16-1.29-.328-1.74-.17-.453-.394-.782-.674-.99-.28-.207-.597-.33-.95-.367-.35-.037-.686.017-1.003.162-.318.145-.607.42-.866.827-.26.406-.487.95-.683 1.635-.195.684-.346 1.54-.454 2.565-.11 1.042-.14 1.92-.092 2.64.05.716.157 1.308.325 1.775.166.466.39.81.668 1.034.278.223.594.353.946.39zM62.7 55.508c-1.055-.11-1.873-.62-2.45-1.524-.58-.904-.79-2.115-.63-3.63.16-1.517.615-2.65 1.367-3.4.753-.75 1.657-1.068 2.714-.957 1.058.11 1.876.61 2.456 1.5.58.89.79 2.093.632 3.61-.16 1.515-.616 2.656-1.37 3.42-.754.765-1.66 1.092-2.717.98zm.163-1.54c.49.052.92-.162 1.287-.642.368-.48.612-1.287.73-2.42.12-1.134.05-1.966-.213-2.496-.262-.53-.638-.822-1.128-.874-.49-.05-.92.155-1.285.62-.367.465-.61 1.264-.728 2.397-.12 1.134-.05 1.973.21 2.52.26.545.636.844 1.126.896zm-.34 7.653l9.84-14.713 1.607.17-9.815 14.716-1.632-.172zm10.316 1.085c-1.058-.11-1.876-.62-2.454-1.523-.58-.905-.788-2.115-.63-3.632.16-1.516.616-2.65 1.37-3.398.75-.75 1.655-1.07 2.712-.958 1.057.112 1.875.612 2.456 1.5.58.89.79 2.093.63 3.61-.16 1.516-.615 2.656-1.37 3.42-.753.766-1.66 1.093-2.715.98zm.16-1.54c.49.053.92-.162 1.287-.642.368-.48.612-1.286.73-2.42.12-1.133.05-1.965-.213-2.496-.262-.53-.637-.822-1.128-.873-.49-.052-.918.155-1.284.62-.366.464-.61 1.263-.728 2.397-.12 1.134-.05 1.974.21 2.52s.636.845 1.126.896z" fill="#27C3AD"/><path d="M33.34 25C24.667 30.446 18.9 40.1 18.9 51.1m4.55 16.118C28.87 76.028 38.6 81.9 49.7 81.9c6.09 0 11.767-1.767 16.546-4.817 2.936-1.874 5.533-4.23 7.68-6.96M80.5 51.1c0-4.742-1.072-9.234-2.986-13.246m-1.727-3.136C70.337 26.056 60.69 20.3 49.7 20.3c-4.83 0-9.403 1.112-13.473 3.095" stroke="url(#b)" stroke-width="1.4" stroke-linecap="round"/><g fill="#39B6C5"><path d="M42.94 74.77l-1.087.412.335-1.113-.727-.907 1.163-.026.637-.972.384 1.097 1.12.306-.924.704.055 1.16M53.362 76.05l-1.087.412.335-1.113-.728-.908 1.162-.025.638-.972.383 1.097 1.12.306-.923.704.055 1.16M47.993 76.273l-1.74.658.537-1.78-1.164-1.45 1.86-.04 1.02-1.556.613 1.755 1.793.49-1.48 1.125.088 1.857"/></g><g fill="#39B6C5"><path d="M47.84 28.57l-1.087.412.335-1.113-.727-.907 1.163-.026.637-.972.384 1.097 1.12.306-.924.704.055 1.16M58.262 29.85l-1.087.412.335-1.113-.728-.908 1.162-.025.638-.972.383 1.097 1.12.306-.923.704.055 1.16M52.893 30.073l-1.74.658.537-1.78-1.164-1.45 1.86-.04 1.02-1.556.613 1.755 1.793.49-1.48 1.125.088 1.857"/></g><circle fill="#FFF" cx="86.8" cy="73.5" r="2.1"/><circle fill="#FFF" cx="7.7" cy="44.1" r="2.1"/></g></svg>