<svg width="104" height="75" viewBox="0 0 104 75" xmlns="http://www.w3.org/2000/svg"><title>Deposit Assurance</title><defs><linearGradient x1="97.783%" y1="55.636%" x2="2.144%" y2="55.636%" id="a"><stop stop-color="#4EC4D6" offset="0%"/><stop stop-color="#19C29E" offset="100%"/></linearGradient><linearGradient x1="97.783%" y1="55.636%" x2="2.144%" y2="55.636%" id="b"><stop stop-color="#4ED6D5" offset="0%"/><stop stop-color="#78D1BE" offset="100%"/></linearGradient><filter x="-9.2%" y="-14.3%" width="118.4%" height="140%" filterUnits="objectBoundingBox" id="c"><feOffset dy="2" in="SourceAlpha" result="shadowOffsetOuter1"/><feGaussianBlur stdDeviation="2" in="shadowOffsetOuter1" result="shadowBlurOuter1"/><feColorMatrix values="0 0 0 0 0.652423469 0 0 0 0 0.652423469 0 0 0 0 0.652423469 0 0 0 0.5 0" in="shadowBlurOuter1" result="shadowMatrixOuter1"/><feMerge><feMergeNode in="shadowMatrixOuter1"/><feMergeNode in="SourceGraphic"/></feMerge></filter><linearGradient x1="156.433%" y1="38.168%" x2="38.168%" y2="38.168%" id="d"><stop stop-color="#3FDDC9" offset="0%"/><stop stop-color="#86FFE1" offset="100%"/></linearGradient><linearGradient x1="156.433%" y1="38.168%" x2="38.168%" y2="38.168%" id="e"><stop stop-color="#FFF" offset="0%"/><stop stop-color="#FFF" stop-opacity="0" offset="100%"/></linearGradient></defs><g fill="none" fill-rule="evenodd"><g transform="translate(18.836 35.42)"><rect fill="url(#a)" width="75.892" height="34.119" rx="2"/><path d="M5.145 25.273v-13.9c4.08 0 7.525-2.665 8.63-6.318H60.83c1.106 3.653 4.55 6.318 8.63 6.318.437 0 .867-.03 1.287-.09v14.08c-.42-.06-.85-.09-1.287-.09-3.06 0-5.763 1.5-7.39 3.79H12.535c-1.627-2.29-4.33-3.79-7.39-3.79z" fill="url(#b)"/><ellipse fill="#FFF" opacity=".445" cx="37.983" cy="16.382" rx="7.718" ry="7.582"/></g><g filter="url(#c)" transform="rotate(-30 75.79 13.955)"><rect fill="url(#a)" width="75.892" height="34.119" rx="2"/><path d="M5.145 25.273v-13.9c4.08 0 7.525-2.665 8.63-6.318H60.83c1.106 3.653 4.55 6.318 8.63 6.318.437 0 .867-.03 1.287-.09v14.08c-.42-.06-.85-.09-1.287-.09-3.06 0-5.763 1.5-7.39 3.79H12.535c-1.627-2.29-4.33-3.79-7.39-3.79z" fill="url(#b)"/><ellipse fill="#FFF" cx="37.983" cy="16.382" rx="7.718" ry="7.582"/></g><path d="M0 4.918C3.01 3.818 4.593 2.178 4.743 0l14.354.275c1.125 3.095 2.507 4.643 4.145 4.643-3.875 12.43-7.748 18.75-11.62 18.962C7.748 24.092 3.874 17.77 0 4.918z" fill="url(#d)" transform="translate(80 49)"/><path d="M2.318 6.407c2.358-.862 3.597-2.146 3.715-3.85l11.24.215c.882 2.423 1.964 3.635 3.247 3.635-3.035 9.734-6.068 14.684-9.1 14.85-3.034.166-6.067-4.784-9.102-14.85z" fill="url(#e)" transform="translate(80 49)"/><path stroke="#4BC3D3" stroke-linecap="round" stroke-linejoin="round" d="M88 61.68l2.18 2.182L95.644 59"/></g></svg>