<svg width="103" height="65" viewBox="0 0 103 65" xmlns="http://www.w3.org/2000/svg" xmlns:xlink="http://www.w3.org/1999/xlink"><title>Lowest Price Guarentee</title><defs><linearGradient x1="97.783%" y1="55.636%" x2="2.144%" y2="55.636%" id="b"><stop stop-color="#4EC4D6" offset="0%"/><stop stop-color="#19C29E" offset="100%"/></linearGradient><rect id="a" width="95.04" height="59.4" rx="8.64"/><linearGradient x1="97.783%" y1="55.636%" x2="2.144%" y2="55.636%" id="d"><stop stop-color="#349CAC" offset="0%"/><stop stop-color="#236B5C" offset="100%"/></linearGradient><linearGradient x1="97.783%" y1="55.636%" x2="2.144%" y2="55.636%" id="e"><stop stop-color="#9BF1FF" offset="0%"/><stop stop-color="#27E5BD" offset="100%"/></linearGradient><path id="g" d="M58.32 18.518l2.875-2.697 7.9 6.935L97.942 0l1.34 2.824L69.81 28.837h-3.744z"/><filter x="-17.1%" y="-17.3%" width="134.2%" height="148.5%" filterUnits="objectBoundingBox" id="f"><feOffset dy="2" in="SourceAlpha" result="shadowOffsetOuter1"/><feGaussianBlur stdDeviation="2" in="shadowOffsetOuter1" result="shadowBlurOuter1"/><feColorMatrix values="0 0 0 0 0.601349915 0 0 0 0 0.601349915 0 0 0 0 0.601349915 0 0 0 0.5 0" in="shadowBlurOuter1"/></filter></defs><g fill="none" fill-rule="evenodd"><g transform="translate(0 5.24)"><mask id="c" fill="#fff"><use xlink:href="#a"/></mask><use fill="url(#b)" xlink:href="#a"/><g transform="translate(7.56 28.08)" mask="url(#c)"><circle fill="url(#d)" style="mix-blend-mode:screen" cx="12.096" cy="12.096" r="12.096"/><path d="M10.903 13.988l.177-.01c2.178-.073 3.99-1.584 4.25-3.553h3.085V8.758H15.31c-.094-.802-.53-1.51-1.188-1.938v-.177h4.293V4.966H7.85v1.802h2.48c1.552 0 2.605.76 2.792 1.99H7.85v1.667h5.283c-.198 1.24-1.5 2.032-3.376 2.032H7.84v1.052L12.903 20h2.73l-4.73-6.012z" fill="#FFF"/></g><path fill="#4E5D70" style="mix-blend-mode:overlay" opacity=".35" mask="url(#c)" d="M58.457 15.27L90.16 62.507l23.306-22.134-3.477-9.83L98.646-1.535 69.4 23.05l-9.08-9.18"/></g><path d="M59.4 41.96h23.226M59.4 49.52h23.226" stroke="#FFF" stroke-width="2.16" stroke-linecap="round"/><path fill="url(#e)" d="M0 16.2h95.04v6.48H0z" transform="translate(0 2)"/><g transform="translate(0 2)"><use fill="#000" filter="url(#f)" xlink:href="#g"/><use fill="#FFF" xlink:href="#g"/></g></g></svg>