<svg width="94" height="65" viewBox="0 0 94 65" xmlns="http://www.w3.org/2000/svg" xmlns:xlink="http://www.w3.org/1999/xlink"><title>Select</title><defs><linearGradient x1="97.783%" y1="55.636%" x2="2.144%" y2="55.636%" id="b"><stop stop-color="#4EC4D6" offset="0%"/><stop stop-color="#19C29E" offset="100%"/></linearGradient><rect id="a" width="33" height="37" rx="4"/><rect id="c" width="33" height="37" rx="4"/><rect id="d" x="4.5" width="49" height="62" rx="6.72"/><ellipse id="e" cx="12.877" cy="12.467" rx="12.444" ry="12.196"/></defs><g fill="none" fill-rule="evenodd"><g transform="translate(.333 13)"><use fill="#fbfbfb" xlink:href="#a"/><rect stroke="url(#b)" stroke-width="2" x="1" y="1" width="31" height="35" rx="4"/><circle stroke="url(#b)" stroke-width="2" cx="17" cy="14" r="6"/><path d="M12.5 27h7.517" stroke="#383D53" stroke-width="2" opacity=".096" stroke-linecap="round"/></g><g transform="translate(60.333 13)"><use fill="#fbfbfb" xlink:href="#c"/><rect stroke="url(#b)" stroke-width="2" x="1" y="1" width="31" height="35" rx="4"/><circle stroke="url(#b)" stroke-width="2" cx="17" cy="14" r="6"/><path d="M12.5 27h7.517" stroke="#383D53" stroke-width="2" opacity=".096" stroke-linecap="round"/></g><g transform="translate(18.333)"><rect fill="#EFEFEF" x=".5" y="3" width="49" height="62" rx="6.72"/><use fill="#fbfbfb" xlink:href="#d"/><rect stroke="url(#b)" stroke-width="1.36" x="5.18" y=".68" width="47.64" height="60.64" rx="6.72"/><path d="M23.212 47.18h12.756" stroke="url(#b)" stroke-width="2.36" stroke-linecap="round"/><g><g transform="translate(17 11)"><use fill="#fbfbfb" xlink:href="#e"/><ellipse stroke="url(#b)" stroke-width="2" cx="12.877" cy="12.467" rx="11.444" ry="11.196"/></g><path stroke="url(#b)" stroke-width="1.44" stroke-linecap="round" stroke-linejoin="round" d="M8.27 12.388l2.417 3.24 6.882-4.616" transform="translate(17 11)"/></g></g></g></svg>