<svg width="92" height="71" viewBox="0 0 92 71" xmlns="http://www.w3.org/2000/svg" xmlns:xlink="http://www.w3.org/1999/xlink"><title>Pickup</title><defs><linearGradient x1="97.783%" y1="55.636%" x2="2.144%" y2="55.636%" id="b"><stop stop-color="#4EC4D6" offset="0%"/><stop stop-color="#19C29E" offset="100%"/></linearGradient><rect id="a" x="5" width="35" height="63" rx="4"/><path d="M8.5 24.538C14.167 16.976 17 11.63 17 8.5 17 3.806 13.194 0 8.5 0S0 3.806 0 8.5c0 3.13 2.833 8.476 8.5 16.038z" id="c"/><circle id="d" cx="8.5" cy="8.5" r="3.5"/><path d="M10.5 24.538C16.167 16.976 19 11.63 19 8.5 19 3.806 15.194 0 10.5 0S2 3.806 2 8.5c0 3.13 2.833 8.476 8.5 16.038z" id="e"/><circle id="f" cx="10.5" cy="8.5" r="3.5"/></defs><g fill="none" fill-rule="evenodd"><g transform="translate(.667 4)"><rect fill="#EFEFEF" opacity=".582" y="4" width="35" height="63" rx="4"/><use fill="#fbfbfb" xlink:href="#a"/><rect stroke="url(#b)" stroke-width="2" x="6" y="1" width="33" height="61" rx="4"/><rect stroke="url(#b)" stroke-width="2" x="6" y="8" width="33" height="45" rx="4"/><path d="M20.5 4.5h4.528" stroke="#D2D4D9" stroke-linecap="round"/><circle fill="#D2D4D9" cx="23" cy="57" r="2"/></g><path stroke="url(#b)" stroke-width="2" stroke-linecap="round" stroke-linejoin="round" stroke-dasharray="6" d="M22.747 43.55l45.862 6.37-15.884-14.817L85.49 23.04" transform="translate(.667)"/><g transform="translate(14.667 21)"><use fill="#fbfbfb" xlink:href="#c"/><path stroke="url(#b)" d="M8.5 23.702c5.335-7.193 8-12.29 8-15.202 0-4.418-3.582-8-8-8s-8 3.582-8 8c0 2.91 2.665 8.01 8 15.202z"/></g><g transform="translate(14.667 21)"><use fill="#F6F6F6" xlink:href="#d"/><circle stroke="url(#b)" cx="8.5" cy="8.5" r="3"/></g><g><path d="M81.167 25.538c5.666-7.562 8.5-12.908 8.5-16.038 0-4.694-3.806-8.5-8.5-8.5-4.695 0-8.5 3.806-8.5 8.5 0 3.13 2.833 8.476 8.5 16.038z" fill="#BFBFBF" opacity=".427"/><g transform="translate(72.667)"><use fill="#fbfbfb" xlink:href="#e"/><path stroke="url(#b)" d="M10.5 23.702c5.335-7.193 8-12.29 8-15.202 0-4.418-3.582-8-8-8s-8 3.582-8 8c0 2.91 2.665 8.01 8 15.202z"/></g><g transform="translate(72.667)"><use fill="#F6F6F6" xlink:href="#f"/><circle stroke="url(#b)" cx="10.5" cy="8.5" r="3"/></g></g></g></svg>