<svg width="396" height="291" viewBox="0 0 396 291" xmlns="http://www.w3.org/2000/svg" xmlns:xlink="http://www.w3.org/1999/xlink"><title>Group</title><defs><path d="M210.074 104.853C210.074 46.97 163.15.047 105.268.047 47.386.047.463 46.97.463 104.853c0 7.863.872 15.522 2.514 22.89-1.642 7.37-2.514 15.027-2.514 22.89 0 57.883 46.923 104.806 104.805 104.806 57.883 0 104.806-46.924 104.806-104.807 0-7.863-.873-15.52-2.514-22.89 1.64-7.368 2.514-15.027 2.514-22.89z" id="a"/><path d="M210.074 104.853C210.074 46.97 163.15.047 105.268.047 47.386.047.463 46.97.463 104.853c0 7.863.872 15.522 2.514 22.89-1.642 7.37-2.514 15.027-2.514 22.89 0 57.883 46.923 104.806 104.805 104.806 57.883 0 104.806-46.924 104.806-104.807 0-7.863-.873-15.52-2.514-22.89 1.64-7.368 2.514-15.027 2.514-22.89z" id="c"/><linearGradient x1="3.764%" y1="3.764%" x2="97.257%" y2="97.257%" id="d"><stop stop-color="#656D78" offset="0%"/><stop stop-color="#2F3640" offset="100%"/></linearGradient></defs><g fill="none" fill-rule="evenodd"><g transform="rotate(-30 232.582 69.393)" fill-rule="nonzero"><path d="M36.97 63.214l-24.342 2.75C9.58 66.31 6.83 64.12 6.486 61.07L.916 11.796C.573 8.75 2.765 5.998 5.813 5.654l24.34-2.75c3.05-.346 5.8 1.846 6.144 4.894l5.57 49.273c.343 3.05-1.85 5.8-4.896 6.144z" fill="#A6A6A6"/><path d="M36.655 60.427l-24.342 2.75c-3.048.346-5.798-1.846-6.142-4.894L.603 9.01C.257 5.962 2.45 3.21 5.497 2.867l24.34-2.75c3.05-.346 5.8 1.846 6.144 4.894l5.57 49.275c.344 3.048-1.848 5.798-4.895 6.142z" fill="#FFF"/><path fill="#C7C7C7" d="M3.014 10.363L33.92 6.87l5.208 46.084-30.906 3.493z"/><circle fill="#C7C7C7" cx="24.1" cy="58.411" r="2.354"/></g><path d="M318.94 86.658l-5.52 5.067 9.93-.606c2.486 2.053 5.41 3.848 8.682 5.243 13.34 5.685 27.44 2.58 31.495-6.932 4.054-9.512-3.475-21.833-16.815-27.517-13.34-5.684-27.442-2.58-31.496 6.932-2.39 5.606-.754 12.19 3.724 17.813zm29.962-3.127c.74-1.735 2.748-2.544 4.484-1.803 1.737.74 2.545 2.747 1.805 4.484-.74 1.738-2.747 2.546-4.484 1.805-1.737-.74-2.544-2.748-1.804-4.484zm-12.094-5.152c.74-1.737 2.748-2.545 4.484-1.805 1.737.74 2.545 2.748 1.805 4.484-.74 1.737-2.747 2.545-4.484 1.804-1.737-.74-2.545-2.746-1.805-4.482zm-12.093-5.154c.74-1.736 2.747-2.544 4.484-1.804 1.736.74 2.543 2.748 1.804 4.484-.74 1.737-2.748 2.545-4.485 1.805-1.738-.742-2.545-2.75-1.805-4.486z" fill="#EBAB48" fill-rule="nonzero"/><g fill-rule="nonzero"><path d="M373.823 232.464L339.835 221.2c-2.716-.902-4.188-3.834-3.288-6.55l15.21-45.883c.9-2.716 3.832-4.188 6.548-3.288l33.988 11.265c2.716.9 4.187 3.833 3.287 6.55l-15.21 45.882c-.9 2.716-3.832 4.188-6.547 3.287z" fill="#CF6845"/><path d="M374.372 222.164l15.34-46.274-31.408-10.41c-2.716-.9-5.648.57-6.548 3.287l-15.21 45.883c-.9 2.715.572 5.648 3.288 6.548l33.987 11.266c2.717.9 5.65-.57 6.55-3.288l1.5-4.527-7.498-2.486z" fill="#FF8154"/><g fill="#CF6845"><path d="M353.198 175.102l-6.383-2.115c-.703-.233-1.084-.992-.85-1.694.233-.704.99-1.085 1.694-.852l6.38 2.116c.704.234 1.085.992.852 1.695-.233.704-.992 1.085-1.694.852zM351.404 180.513l-6.383-2.115c-.702-.234-1.083-.992-.85-1.695.234-.703.992-1.084 1.696-.85l6.38 2.114c.704.233 1.085.992.852 1.695-.232.703-.992 1.084-1.694.85zM349.61 185.924l-6.382-2.115c-.703-.235-1.084-.993-.85-1.696.233-.704.99-1.085 1.694-.85l6.382 2.114c.703.233 1.084.992.85 1.695-.232.702-.99 1.083-1.694.85zM347.817 191.334l-6.382-2.115c-.703-.235-1.084-.993-.85-1.696.232-.703.99-1.084 1.694-.85l6.38 2.114c.704.233 1.085.992.852 1.694-.234.704-.992 1.085-1.695.852zM346.023 196.745l-6.38-2.115c-.704-.234-1.085-.992-.852-1.695.234-.704.992-1.085 1.695-.852l6.382 2.116c.703.232 1.084.99.85 1.693-.232.703-.99 1.084-1.694.852zM344.23 202.155l-6.382-2.116c-.703-.234-1.084-.992-.85-1.695.232-.703.99-1.084 1.693-.852l6.384 2.116c.702.232 1.084.99.85 1.693-.232.704-.99 1.085-1.695.852zM342.436 207.565l-6.382-2.115c-.703-.233-1.084-.992-.85-1.694.233-.704.99-1.085 1.694-.852l6.382 2.115c.703.233 1.084.99.85 1.694-.232.703-.99 1.084-1.694.85zM340.643 212.975l-6.382-2.115c-.702-.233-1.083-.992-.85-1.695.234-.702.992-1.084 1.695-.85l6.382 2.114c.703.233 1.084.99.85 1.694-.232.704-.99 1.085-1.694.85z"/></g><g><path d="M370.616 213.38l-.007.004c.006.012.01.02.006-.004zM364.63 183.512c-.005-.024-.007-.015-.01-.002.005 0 .007 0 .01.002z" fill="#CF6845"/><path d="M357.484 186.225c-1.656 2.135-2.22 4.957-2.092 7.655.085 1.822.46 3.61.923 5.38.242.918.43 1.852.56 2.794.253 1.81.598 3.605 1.22 5.32.924 2.538 2.532 4.924 4.882 6.256 2.348 1.33 5.5 1.41 7.633-.245-.013-.02-.033-.062-.024-.022l-1.556-7.764c-1.363-.43-2.613-.295-3.963.173-1.144-1.956-1.922-4.12-2.316-6.35-.495-2.21-.61-4.507-.31-6.752 1.427-.088 2.633-.443 3.724-1.366l-1.556-7.764c.008.04.01-.005.013-.03-2.603-.705-5.482.582-7.136 2.715z" fill="#FFE7DE"/></g></g><g fill-rule="nonzero" fill="#EBAB48"><path d="M139.39 24.98l13.37-22.23-1.232-2.605L112.5 18.583l1.23 2.605"/><path d="M140.203 26.7l-25.66-3.79 10.666 22.578 39.03-18.438L153.57 4.47"/></g><g transform="translate(91.4 36)"><mask id="b" fill="#fff"><use xlink:href="#a"/></mask><g fill-rule="nonzero" mask="url(#b)"><path fill="#F2D29D" d="M75.71 122.038h59.115v67.95H75.71z"/><path d="M75.71 159.865c1.816 1.926 3.895 3.63 6.216 5.04L98.62 175.05c9.526 5.786 21.482 5.786 31.008 0l5.198-3.16v-49.852H75.71v37.827z" fill="#E3C593"/><path d="M67.94 130.153c-5.47-1.922-8.35-8.07-10.656-13.638-2.124-5.132-4.276-10.38-4.712-15.96-.197-2.513.1-5.36 1.936-6.977 1.43-1.257 3.496-1.443 5.3-.96 1.804.48 3.412 1.542 4.987 2.588 9.815 6.522 8.01 23.848 3.145 34.947zM145.343 129.084c5.47-1.922 8.352-8.07 10.657-13.638 2.123-5.132 4.276-10.38 4.712-15.96.197-2.513-.1-5.36-1.936-6.977-1.43-1.258-3.495-1.444-5.3-.963-1.804.482-3.412 1.543-4.987 2.59-9.816 6.52-8.01 23.848-3.147 34.947z" fill="#EDCD99"/><path d="M137.075 155.344l-15.848 10.143c-9.043 5.788-20.393 5.788-29.436 0l-15.847-10.143c-8.46-5.415-13.626-15.087-13.626-25.516v-62.74H150.7v62.74c0 10.43-5.165 20.1-13.625 25.516z" fill="#FFDCA4"/><path d="M149.545 115.572c-.35-7.12-2.262-14.61-4.018-21.496-24.725-1.122-48.457-8.883-69.63-22.377-.148 9.793-2.432 19.545-6.628 28.286-2.555 5.322-5.915 10.79-5.23 16.71-2.436-5.428-4.446-10.39-6.88-15.818-2.87-6.4-5.762-12.857-7.305-19.745-1.543-6.888-1.657-14.33.942-20.858 3.05-7.658 9.892-13.506 17.635-15.07 5.153-9.255 14.49-16.25 24.31-19.097 9.82-2.845 20.22-2.636 30.335-1.365 12.172 1.53 25.24 5.28 32.43 15.738 5.052 7.35 6.325 16.858 6.272 25.93-.103 17.19-4.147 34.232-12.235 49.162z" fill="#5E523D"/><path d="M105.268 185.51L75.75 169.827l-8.494 7.84-23.7 10.157c-14.027 6.012-24.847 17.69-29.772 32.137l-4.762 34.804h96.246V185.51z" fill="#D6D6D6"/><path d="M105.268 185.51l29.518-15.682 8.493 7.84 23.7 10.157c14.027 6.012 24.847 17.69 29.772 32.137l4.762 34.804h-96.246V185.51z" fill="#D6D6D6"/><path fill="#E0724A" d="M105.268 191.86l-14.536 54.445 2.894 8.462h23.284l2.927-8.56"/><path d="M100.073 204.42l-4.31-7.462c-2.308-4 .578-8.998 5.197-8.998h8.617c4.618 0 7.505 5 5.195 8.998l-4.308 7.463c-2.31 4-8.082 4-10.39 0z" fill="#FF8154"/><path fill="#F0F0F0" d="M143.28 177.668l9.62 4.124-20.727 41.613-26.905-37.896 29.518-15.682"/><path d="M201.514 254.767H116.91l26.37-77.1 23.7 10.158c14.027 6.013 24.847 17.692 29.772 32.138l4.762 34.804z" fill="#4B5669"/><path d="M165.78 187.31c-10.525 10.2-20.54 19.76-20.54 19.76l9.147 9.148-25.832 38.55H116.91l26.37-77.1 22.5 9.643z" fill="#616F87"/><path fill="#F0F0F0" d="M67.256 177.668l-9.62 4.124 20.728 41.613 26.904-37.896-29.518-15.682"/><path d="M9.022 254.767h84.604l-26.37-77.1-23.7 10.158c-14.027 6.013-24.847 17.692-29.772 32.138l-4.762 34.804z" fill="#4B5669"/><path d="M44.756 187.31c10.524 10.2 20.54 19.76 20.54 19.76l-9.147 9.148 25.83 38.55h11.646l-26.37-77.1-22.5 9.643z" fill="#616F87"/><path d="M55.537 129.085h-6.534V90.63c0-31.71 25.797-57.505 57.505-57.505 31.71 0 57.506 25.797 57.506 57.506v36.9h-6.534v-36.9c0-28.105-22.865-50.972-50.972-50.972-28.105 0-50.97 22.866-50.97 50.973v38.455z" fill="#BF613F"/><g><path d="M52.46 129.88c-6.552 0-11.863-5.31-11.863-11.862V102.37c0-6.552 5.31-11.862 11.862-11.862v39.372z" fill="#FF8154"/><path d="M55.153 133.027h4.204c1.488 0 2.693-1.205 2.693-2.693v-40.28c0-1.488-1.206-2.693-2.693-2.693h-4.204c-1.488 0-2.693 1.207-2.693 2.693v40.28c0 1.49 1.205 2.694 2.693 2.694z" fill="#BF613F"/></g><path d="M112.672 162.296c-1.402 0-2.697-.91-3.125-2.32-.523-1.726.452-3.55 2.178-4.074l11.775-3.57c16.78-5.088 29.925-18.116 35.162-34.85.538-1.72 2.37-2.683 4.093-2.142 1.722.54 2.682 2.372 2.142 4.094-5.883 18.8-20.65 33.435-39.5 39.15l-11.776 3.57c-.315.096-.635.142-.948.142z" fill="#BF613F"/><g><path d="M160.644 90.508c6.55 0 11.862 5.31 11.862 11.862v15.648c0 6.552-5.31 11.863-11.862 11.863V90.51z" fill="#FF8154"/><path d="M157.95 87.36h-4.204c-1.488 0-2.693 1.207-2.693 2.693v40.28c0 1.49 1.205 2.694 2.693 2.694h4.205c1.488 0 2.693-1.205 2.693-2.693v-40.28c0-1.488-1.205-2.693-2.692-2.693z" fill="#BF613F"/></g></g></g><g transform="translate(91.4 36)"><mask id="e" fill="#fff"><use xlink:href="#c"/></mask><path d="M166.98 187.825l-1.2-.513-22.5-9.643-8.455-7.805v-13.08l2.25-1.44c2.643-1.693 4.966-3.8 6.91-6.22 5.87-4.432 10.885-9.926 14.764-16.218 1.097-.34 1.893-1.363 1.893-2.573v-.454c6.552 0 11.862-5.31 11.862-11.862V102.37c0-5.38-3.582-9.92-8.49-11.374v-.366c0-5.873-.888-11.54-2.53-16.882.174-2.44.28-4.887.292-7.338.054-9.073-1.22-18.58-6.27-25.93-7.19-10.46-20.26-14.21-32.43-15.738-5.897-.74-11.89-1.115-17.81-.74v230.765h96.246l-4.763-34.804c-4.923-14.446-15.743-26.126-29.77-32.138zm-16.28-57.997v-4.668c.12-.143.238-.287.353-.434v5.61c0 .598.197 1.15.53 1.597-.356.51-.72 1.01-1.093 1.505.138-1.19.21-2.394.21-3.61z" fill="url(#d)" fill-rule="nonzero" opacity=".157" mask="url(#e)"/></g></g></svg>