<svg width="137" height="78" viewBox="0 0 137 78" xmlns="http://www.w3.org/2000/svg"><title>Ride</title><defs><linearGradient x1="97.783%" y1="55.636%" x2="2.144%" y2="55.636%" id="a"><stop stop-color="#4EC4D6" offset="0%"/><stop stop-color="#19C29E" offset="100%"/></linearGradient></defs><g fill="none" fill-rule="evenodd"><path d="M4.594 43.493c44.59 5.465 70.725 7.324 78.405 5.58 9.324-2.12 10.78-6.265 0-14.757C58.9 15.333 76.232 4.226 135 1c-32.702 2.14-48.664 7.01-47.884 14.612 1.17 11.4 76.394 62.183-10.665 55.842-58.04-4.227-83.032-6.434-74.978-6.62l3.122-21.34z" fill="#EFEFEF"/><path d="M4.353 45.53c82.1 10.408 111.12 6.193 87.06-12.643C67.356 14.05 82.218 3.087 136 0c-35.488 4.788-47.48 11.466-35.972 20.034 17.26 12.853 76.264 61.7-10.647 55.41C31.44 71.248 2.315 68.253 2 66.46l2.353-20.93z" stroke="url(#a)" stroke-width="2" fill="#fbfbfb" transform="translate(0 1)"/><path d="M3 54.317c74.604 11.577 111.85 11.577 111.735 0-.172-17.367-42.38-34.736-26.474-44.022C98.868 4.105 112.114 1.007 128 1" stroke="url(#a)" stroke-width="2" stroke-linecap="round" stroke-dasharray="6" transform="translate(0 1)"/></g></svg>