<svg width="110" height="79" viewBox="0 0 110 79" xmlns="http://www.w3.org/2000/svg" xmlns:xlink="http://www.w3.org/1999/xlink"><title>Seach-Full</title><defs><linearGradient x1="97.783%" y1="55.636%" x2="2.144%" y2="55.636%" id="a"><stop stop-color="#4EC4D6" offset="0%"/><stop stop-color="#19C29E" offset="100%"/></linearGradient><rect id="b" x="3.506" width="97.481" height="62.679" rx="2.8"/><ellipse id="c" cx="12.623" cy="10.446" rx="10.519" ry="10.446"/><rect id="d" x="3.25" width="22.75" height="40.433" rx="2.56"/></defs><g fill="none" fill-rule="evenodd"><g transform="translate(1)"><path d="M6.482 63.006L.18 75.314c-.353.688-.08 1.532.607 1.884.198.1.417.154.638.154H106.5c.774 0 1.4-.627 1.4-1.4 0-.287-.087-.567-.252-.803l-8.674-12.396c-.262-.374-.69-.597-1.15-.597l-90.098.087c-.525 0-1.005.295-1.244.762z" stroke="url(#a)" stroke-width="1.4" fill="#fbfbfb" stroke-linecap="round" stroke-linejoin="round"/><path d="M6.87 63.645v8.22c0 .75.594 1.368 1.345 1.398l98.15 3.975c.773.03 1.425-.57 1.456-1.342.013-.307-.075-.61-.25-.86l-8.596-12.282c-.262-.374-.69-.597-1.15-.597l-89.553.086v.002c-.77 0-1.397.627-1.397 1.4z"/><use fill="#fbfbfb" xlink:href="#b"/><rect stroke="url(#a)" stroke-width="1.4" x="4.206" y=".7" width="96.081" height="61.279" rx="2.8"/><rect stroke="url(#a)" stroke-width="1.4" x="9.817" y="6.271" width="85.561" height="50.136" rx="2.8"/><g transform="translate(37.87 18.804)"><path d="M16.13 15.32l10.664 10.592" stroke="url(#a)" stroke-width="1.4" stroke-linecap="round"/><ellipse fill="#EAF6ED" cx="10.519" cy="11.839" rx="10.519" ry="10.446"/><use fill="#fbfbfb" xlink:href="#c"/><ellipse stroke="url(#a)" stroke-width="1.4" cx="12.623" cy="10.446" rx="9.819" ry="9.746"/></g></g><g transform="translate(83 22)"><rect fill="#EFEFEF" opacity=".661" y="2.567" width="22.75" height="40.433" rx="2.56"/><use fill="#fbfbfb" xlink:href="#d"/><rect stroke="url(#a)" stroke-width="1.28" x="3.89" y=".64" width="21.47" height="39.153" rx="2.56"/><rect stroke="url(#a)" stroke-width="1.28" x="3.89" y="5.133" width="21.47" height="28.884" rx="2.56"/><path d="M13.325 2.888h2.943" stroke="#D2D4D9" stroke-width=".64" stroke-linecap="round"/><ellipse fill="#D2D4D9" cx="14.95" cy="36.582" rx="1.3" ry="1.284"/></g></g></svg>