<svg width="277" height="180" viewBox="0 0 277 180" xmlns="http://www.w3.org/2000/svg"><title>Rocket</title><defs><linearGradient x1="50%" y1="0%" x2="50%" y2="100%" id="a"><stop stop-color="#6FD4B1" offset="0%"/><stop stop-color="#FFF" offset="100%"/></linearGradient><linearGradient x1="68.468%" y1="66.807%" x2="72.129%" y2="0%" id="b"><stop stop-color="#52ADBB" offset="0%"/><stop stop-color="#19C29E" offset="100%"/></linearGradient><linearGradient x1="50%" y1="100%" x2="50%" y2="0%" id="c"><stop stop-color="#4EC4D6" offset="0%"/><stop stop-color="#19C29E" offset="100%"/></linearGradient><linearGradient x1=".55%" y1=".55%" x2="97.3%" y2="97.3%" id="d"><stop stop-color="#48CFAD" offset="0%"/><stop stop-color="#19A784" offset="100%"/></linearGradient></defs><g fill="none" fill-rule="evenodd"><g transform="rotate(45 202.326 165.68)"><path d="M121.342 105.324c-7.32 53.672-23.324 91.377-48.01 113.117-37.03 32.61-68.122 53.542-72.665 49-3.03-3.03 21.882 23.62 74.733 79.95 71.265-108.7 119.126-154.666 143.584-137.902 36.688 25.145-78.198-40.727-57.778-102.588 13.613-41.24.325-41.765-39.864-1.576z" fill="url(#a)"/><path d="M15.275 276.657l63.836 63.836L190.778 201.41c-36.902-40.09-47.856-77.263-32.86-111.52l-29.457-4.923c-5.322 51.095-13.727 87.505-25.212 109.232-11.486 21.725-40.81 49.21-87.973 82.457z" fill="url(#b)" opacity=".087" style="mix-blend-mode:multiply"/><path d="M148.632 101.263v4.386h11.893v-4.387h8.417c1.55 0 2.806-1.26 2.806-2.814v-5.63c0-10.3-3.93-15.13-7.09-19.01-2.4-2.947-4.134-5.077-4.134-9.133V36.535c0-12.282-6.17-18.61-6.262-18.687L140.232.962c-1.066-1.283-3.244-1.283-4.31 0L122.064 17.66c-.263.264-6.434 6.594-6.434 18.875v28.142c0 4.056-1.734 6.186-4.133 9.133-3.16 3.88-7.09 8.71-7.09 19.01v5.63c0 1.552 1.257 2.813 2.806 2.813h8.417v4.386h11.893v-4.387h21.11z" stroke="#087E56" stroke-width="3" fill="#56E1B1" stroke-linecap="round" stroke-linejoin="round"/><path d="M159.75 103.824V99.59h8.126c1.496 0 2.71-1.218 2.71-2.717v-5.435c0-9.944-3.796-14.606-6.847-18.353-2.317-2.845-3.99-4.902-3.99-8.817v-27.17c0-11.858-5.958-17.97-6.047-18.042L140.158 2.754c-1.03-1.24-3.132-1.24-4.16 0 0 0 3.495 12.044 2.442 40.776-.128 3.49-1.256 22.375-4.798 37.298-2.58 10.87-8.356 19.31-6.555 19.783 6.473 1.7 20.056.177 21.993.264 5.486.25-3.073 4.663 1.078 4.56 10.17-.25 9.59-1.61 9.59-1.61z" fill="url(#c)" opacity=".218" style="mix-blend-mode:multiply"/><ellipse stroke="#087E56" stroke-width="3" fill="url(#d)" stroke-linecap="round" stroke-linejoin="round" cx="138.168" cy="43.228" rx="10.207" ry="10.218"/></g><path d="M214.017 171.535C211.535 164.245 204.63 159 196.5 159c-4.706 0-9 1.757-12.266 4.65-4.118-5.265-10.53-8.65-17.734-8.65-11.98 0-21.775 9.365-22.462 21.174-5.14.925-9.038 5.42-9.038 10.826 0 6.075 4.925 11 11 11 2.655 0 5.09-.94 6.99-2.506 3.762 2.83 8.44 4.506 13.51 4.506 7.203 0 13.616-3.385 17.734-8.65 3.265 2.893 7.56 4.65 12.266 4.65 3.146 0 6.11-.785 8.703-2.17 2.637 4.3 7.382 7.17 12.797 7.17 8.284 0 15-6.716 15-15 0-8.284-6.716-15-15-15-1.38 0-2.715.186-3.983.535z" fill="#FFF"/><path d="M154.017 171.535C151.535 164.245 144.63 159 136.5 159c-4.706 0-9 1.757-12.266 4.65-4.118-5.265-10.53-8.65-17.734-8.65-11.98 0-21.775 9.365-22.462 21.174C78.898 177.1 75 181.594 75 187c0 6.075 4.925 11 11 11 2.655 0 5.09-.94 6.99-2.506 3.762 2.83 8.44 4.506 13.51 4.506 7.203 0 13.616-3.385 17.734-8.65 3.265 2.893 7.56 4.65 12.266 4.65 3.146 0 6.11-.785 8.703-2.17 2.637 4.3 7.382 7.17 12.797 7.17 8.284 0 15-6.716 15-15 0-8.284-6.716-15-15-15-1.38 0-2.715.186-3.983.535z" fill="#FFF" opacity=".609"/><path d="M64.815 193.89c-2.31.72-4.767 1.11-7.315 1.11-4.93 0-9.52-1.457-13.365-3.963C40.78 196.42 34.81 200 28 200c-7.182 0-13.434-3.985-16.664-9.865C8.68 193.12 4.81 195 .5 195c-8.008 0-14.5-6.492-14.5-14.5 0-2.703.74-5.233 2.027-7.4C-20.8 169.398-27 160.674-27 150.5c0-13.53 10.97-24.5 24.5-24.5S22 136.97 22 150.5c0 5.756-1.985 11.048-5.307 15.23 3.16-2.344 7.07-3.73 11.307-3.73 2.157 0 4.23.36 6.162 1.022C37.324 153.148 46.577 146 57.5 146c13.53 0 24.5 10.97 24.5 24.5 0 1.273-.097 2.524-.284 3.745C88.703 175.523 94 181.643 94 189c0 8.284-6.716 15-15 15-6.572 0-12.157-4.227-14.185-10.11zm-53.56-23.114c.146.16.287.323.425.49.324-.543.674-1.068 1.05-1.573-.478.38-.97.74-1.474 1.083z" fill="#FFF"/></g></svg>