<svg width="100" height="90" viewBox="0 0 100 90" xmlns="http://www.w3.org/2000/svg" xmlns:xlink="http://www.w3.org/1999/xlink"><title>Shield</title><defs><linearGradient x1="8.983%" y1=".631%" x2="77.397%" y2="108.838%" id="a"><stop stop-color="#CFFFF7" offset="0%"/><stop stop-color="#61C5B5" offset="100%"/></linearGradient><linearGradient x1="97.783%" y1="55.636%" x2="2.144%" y2="55.636%" id="c"><stop stop-color="#4EC4D6" offset="0%"/><stop stop-color="#19C29E" offset="100%"/></linearGradient><path d="M1.28 1.66c15.612 2.936 26.864 4.346 33.756 4.23 11.258-.19 20.286-8.696 30.877-4.23v52.69L33.597 74.83.167 54.35 1.28 1.66z" id="b"/><linearGradient x1="50%" y1="0%" x2="50%" y2="100%" id="f"><stop stop-color="#6AAFB8" offset="0%"/><stop stop-color="#5C86A3" offset="100%"/></linearGradient><path id="e" d="M9.357.058H89.81l10.05 9.795-10.05 9.794H9.358L.253 9.853z"/></defs><g fill="none" fill-rule="evenodd"><path d="M11.816 1.64c17.244 3.386 30 5.03 38.272 4.935C63.238 6.423 75.98-3.582 88.36 1.64v62.402L50.09 89.49 10.495 64.04l1.32-62.402z" fill="url(#a)"/><g transform="translate(16.39 6.51)"><mask id="d" fill="#fff"><use xlink:href="#b"/></mask><use fill="url(#c)" xlink:href="#b"/><g opacity=".41" style="mix-blend-mode:soft-light" mask="url(#d)" fill="#CCE3FF"><path d="M13.134 68.132L76.54 33.114l1.213 10.337-58.84 30.264M-5.1 34.737l2.716 8.04L83.4-5.374l-3.834-7.45M-2.8 18.16v6.447l57.308-37.05-17.31-6.09M3.61 60.29L86.397 16.7l-7.45-7.25L-4.11 54.31"/></g></g><g transform="translate(0 27.126)"><use fill="#FFF" xlink:href="#e"/><path stroke="url(#f)" stroke-width="1.399" d="M9.662.758L1.208 9.853l8.454 9.094h79.864l9.33-9.094-9.33-9.095H9.662z"/><circle fill="#08C4BB" cx="86.313" cy="9.853" r="1.399"/><circle fill="#08C4BB" cx="12.855" cy="9.853" r="1.399"/><g><text font-family="HelveticaNeue-BoldItalic, Helvetica Neue" font-size="11.641" font-style="italic" font-weight="bold" fill="#5C86A3" transform="translate(21.25 2.857)"><tspan x="9.85" y="11">Assured</tspan></text><path d="M21.25 9.783s5 4.578 5 5.51c0 .934.578-4.826 6.64-10.645 0 0-3.335 1.573-7.487 5.02l-3.37-1.165-.783 1.28z" fill="#08C4BB"/></g></g></g></svg>